<?xml version="1.0" standalone="no"?>
<!DOCTYPE svg PUBLIC "-//W3C//DTD SVG 20010904//EN"
 "http://www.w3.org/TR/2001/REC-SVG-20010904/DTD/svg10.dtd">
<svg version="1.0" xmlns="http://www.w3.org/2000/svg"
 width="1536.000000pt" height="1024.000000pt" viewBox="0 0 1536.000000 1024.000000"
 preserveAspectRatio="xMidYMid meet">

<g transform="translate(0.000000,1024.000000) scale(0.100000,-0.100000)"
fill="#000000" stroke="none">
<path d="M11563 4975 c0 -38 2 -53 4 -32 2 20 2 52 0 70 -2 17 -4 1 -4 -38z"/>
<path d="M9362 4970 c0 -19 2 -27 5 -17 2 9 2 25 0 35 -3 9 -5 1 -5 -18z"/>
<path d="M11571 4884 c0 -11 3 -14 6 -6 3 7 2 16 -1 19 -3 4 -6 -2 -5 -13z"/>
<path d="M9372 4850 c0 -14 2 -19 5 -12 2 6 2 18 0 25 -3 6 -5 1 -5 -13z"/>
<path d="M9381 4794 c0 -11 3 -14 6 -6 3 7 2 16 -1 19 -3 4 -6 -2 -5 -13z"/>
<path d="M10804 4585 c0 -104 2 -146 3 -92 2 54 2 139 0 190 -1 51 -3 7 -3
-98z"/>
<path d="M7014 4570 c0 -107 2 -151 3 -97 2 53 2 141 0 195 -1 53 -3 9 -3 -98z"/>
<path d="M9660 4726 c0 -2 8 -10 18 -17 15 -13 16 -12 3 4 -13 16 -21 21 -21
13z"/>
<path d="M8380 4665 c0 -5 5 -17 10 -25 5 -8 10 -10 10 -5 0 6 -5 17 -10 25
-5 8 -10 11 -10 5z"/>
<path d="M8822 4618 c-12 -28 -20 -53 -18 -55 2 -2 13 19 25 48 12 28 21 53
19 55 -3 2 -14 -20 -26 -48z"/>
<path d="M8401 4615 c0 -5 8 -26 19 -45 11 -19 19 -30 19 -25 0 6 -8 26 -19
45 -11 19 -19 31 -19 25z"/>
<path d="M11042 4590 c0 -19 2 -27 5 -17 2 9 2 25 0 35 -3 9 -5 1 -5 -18z"/>
<path d="M9500 4555 c13 -14 26 -25 28 -25 3 0 -5 11 -18 25 -13 14 -26 25
-28 25 -3 0 5 -11 18 -25z"/>
<path d="M10180 4570 c-8 -5 -10 -10 -5 -10 6 0 17 5 25 10 8 5 11 10 5 10 -5
0 -17 -5 -25 -10z"/>
<path d="M10460 4570 c0 -5 5 -10 11 -10 5 0 7 5 4 10 -3 6 -8 10 -11 10 -2 0
-4 -4 -4 -10z"/>
<path d="M11465 4550 c10 -11 20 -20 23 -20 3 0 -3 9 -13 20 -10 11 -20 20
-23 20 -3 0 3 -9 13 -20z"/>
<path d="M9923 4543 c9 -2 23 -2 30 0 6 3 -1 5 -18 5 -16 0 -22 -2 -12 -5z"/>
<path d="M10083 4543 c9 -2 23 -2 30 0 6 3 -1 5 -18 5 -16 0 -22 -2 -12 -5z"/>
<path d="M11983 4543 c9 -2 23 -2 30 0 6 3 -1 5 -18 5 -16 0 -22 -2 -12 -5z"/>
<path d="M10003 4533 c9 -2 23 -2 30 0 6 3 -1 5 -18 5 -16 0 -22 -2 -12 -5z"/>
<path d="M8445 4515 c24 -70 28 -77 37 -63 7 9 8 8 4 -6 -4 -10 -4 -28 0 -39
5 -16 8 -17 16 -6 7 10 8 8 3 -8 -9 -33 23 -44 121 -41 76 3 88 6 101 24 14
21 13 22 -24 17 -56 -7 -55 -7 -101 6 -36 10 -43 16 -39 32 4 14 0 19 -14 19
-10 0 -27 8 -37 18 -10 10 -23 17 -29 15 -7 -3 -19 8 -28 24 -9 15 -13 19 -10
8z m212 -152 c-20 -2 -52 -2 -70 0 -17 2 0 4 38 4 39 0 53 -2 32 -4z"/>
<path d="M10459 4493 l-24 -28 28 24 c15 14 27 26 27 28 0 8 -8 1 -31 -24z"/>
<path d="M11060 4513 c0 -6 8 -17 18 -24 16 -13 16 -13 2 6 -8 11 -16 22 -17
24 -2 2 -3 0 -3 -6z"/>
<path d="M9574 4482 c8 -13 66 -56 66 -49 0 3 -17 17 -37 33 -20 15 -33 23
-29 16z"/>
<path d="M11530 4486 c0 -2 8 -10 18 -17 15 -13 16 -12 3 4 -13 16 -21 21 -21
13z"/>
<path d="M12399 4473 c-13 -16 -12 -17 4 -4 16 13 21 21 13 21 -2 0 -10 -8
-17 -17z"/>
<path d="M8746 4435 c-9 -26 -7 -32 5 -12 6 10 9 21 6 23 -2 3 -7 -2 -11 -11z"/>
<path d="M9863 4431 c-6 -24 -14 -26 -31 -9 -8 8 -12 8 -12 1 0 -10 -39 -22
-87 -26 -30 -3 -29 -4 10 -21 70 -29 176 -46 279 -45 88 1 194 14 148 18 -13
1 -13 2 0 11 13 8 12 10 -2 10 -10 0 -18 4 -18 9 0 12 -36 25 -75 27 -66 2
-75 5 -75 18 0 18 -13 22 -78 25 -47 2 -54 0 -59 -18z"/>
<path d="M9664 4416 c11 -9 24 -16 30 -16 12 0 7 5 -24 19 -24 11 -24 11 -6
-3z"/>
<path d="M11680 4392 c8 -5 26 -13 40 -16 17 -5 20 -4 10 2 -8 5 -26 13 -40
16 -17 5 -20 4 -10 -2z"/>
<path d="M10225 4365 c-22 -8 -31 -14 -20 -14 11 0 34 6 50 14 38 17 22 17
-30 0z"/>
<path d="M10918 4363 c12 -2 30 -2 40 0 9 3 -1 5 -23 4 -22 0 -30 -2 -17 -4z"/>
<path d="M12158 4353 c7 -3 16 -2 19 1 4 3 -2 6 -13 5 -11 0 -14 -3 -6 -6z"/>
<path d="M11838 4343 c7 -3 16 -2 19 1 4 3 -2 6 -13 5 -11 0 -14 -3 -6 -6z"/>
<path d="M12088 4343 c12 -2 30 -2 40 0 9 3 -1 5 -23 4 -22 0 -30 -2 -17 -4z"/>
<path d="M11923 4333 c26 -2 68 -2 95 0 26 2 4 3 -48 3 -52 0 -74 -1 -47 -3z"/>
<path d="M7002 4240 c-2 -57 -5 -71 -13 -57 -14 24 -27 21 -31 -8 -2 -14 -6
-24 -10 -23 -3 2 -20 -13 -37 -32 -17 -19 -31 -29 -31 -21 0 8 -9 2 -21 -13
-11 -14 -27 -26 -36 -26 -10 0 -13 -6 -9 -16 4 -12 2 -15 -9 -11 -8 4 -17 2
-20 -3 -4 -6 -1 -10 5 -10 17 0 -9 -23 -48 -43 -18 -9 -40 -13 -48 -10 -8 3
-26 2 -40 -1 -21 -6 -25 -12 -21 -32 3 -17 -4 -34 -24 -56 -15 -18 -25 -36
-23 -40 3 -4 0 -8 -5 -8 -6 0 -11 -8 -11 -18 0 -10 -7 -19 -15 -19 -8 0 -15 5
-15 11 0 20 -20 -19 -20 -39 0 -12 -18 -38 -40 -58 -40 -36 -57 -47 -45 -27 3
6 2 10 -3 10 -6 0 -13 -7 -16 -16 -3 -8 -2 -12 4 -9 12 8 12 3 0 -29 -6 -16
-17 -26 -30 -26 -14 0 -20 -7 -20 -23 0 -25 -34 -60 -64 -65 -10 -2 -16 0 -13
5 3 4 -6 9 -19 9 -25 2 -33 -11 -11 -19 8 -2 -1 -20 -25 -52 -21 -27 -38 -54
-38 -62 0 -7 -11 -19 -25 -25 -14 -6 -25 -15 -25 -20 0 -4 -13 -8 -28 -8 -16
0 -42 -12 -62 -30 -19 -16 -43 -29 -52 -30 -9 0 -18 -10 -20 -22 -2 -13 -9
-22 -16 -21 -6 2 -12 -2 -12 -7 0 -6 -6 -10 -13 -10 -14 0 -97 -85 -97 -99 0
-13 -27 -21 -45 -15 -8 4 -15 1 -15 -6 0 -6 5 -8 10 -5 6 3 10 1 10 -4 0 -6
-6 -11 -12 -11 -10 0 -9 -3 1 -9 7 -5 10 -14 7 -20 -5 -7 8 -11 41 -12 66 -3
24 -8 -142 -19 l-140 -9 152 5 c425 13 738 100 941 264 110 89 207 233 265
395 52 145 91 406 84 555 l-3 75 -2 -75z m-132 -174 c0 -2 -8 -10 -17 -17 -16
-13 -17 -12 -4 4 13 16 21 21 21 13z"/>
<path d="M4977 3013 c94 -2 252 -2 350 0 98 1 21 2 -172 2 -192 1 -273 -1
-178 -2z"/>
</g>
</svg>
